<svg width="157" height="40" viewBox="0 0 157 40" fill="none" xmlns="http://www.w3.org/2000/svg">
<g clip-path="url(#clip0_751_13905)">
<circle cx="20" cy="19.9998" r="18" fill="#FFF5C4" stroke="#1C1C1C" stroke-width="3"/>
<path d="M14.6006 26.5854L10.7207 13.4005H13.3731L15.9569 23.0832H16.0856L18.678 13.4005H21.3304L23.9056 23.0402H24.0344L26.6009 13.4005H29.2534L25.382 26.5854H22.7639L20.0858 17.0658H19.8883L17.2101 26.5854H14.6006Z" fill="#1C1C1C"/>
</g>
<path d="M68.935 11.8055L63.9543 28.6451H61.0133L57.4793 15.8375L53.9454 28.6451H50.9807L46 11.8055H49.0833L52.5461 24.8028L56.1037 11.8055H58.9024L62.4838 24.8028L65.9228 11.8055H68.935Z" fill="#1C1C1C"/>
<path d="M74.0214 29.0008C73.1202 29.0008 72.2821 28.8427 71.5074 28.5265C70.7484 28.1944 70.0843 27.7359 69.5151 27.1509C68.9459 26.55 68.5031 25.8543 68.1869 25.0637C67.8707 24.2573 67.7125 23.3798 67.7125 22.4311C67.7125 21.4982 67.8707 20.6364 68.1869 19.8458C68.5031 19.0394 68.9459 18.3437 69.5151 17.7587C70.1001 17.1578 70.78 16.6993 71.5548 16.3831C72.3454 16.051 73.1992 15.885 74.1163 15.885C75.0176 15.885 75.8477 16.051 76.6067 16.3831C77.3814 16.6993 78.0534 17.1578 78.6227 17.7587C79.1919 18.3437 79.6346 19.0315 79.9508 19.8221C80.2671 20.6127 80.4252 21.4823 80.4252 22.4311C80.4252 23.3798 80.2671 24.2573 79.9508 25.0637C79.6346 25.8543 79.184 26.55 78.5989 27.1509C78.0297 27.7359 77.3498 28.1944 76.5592 28.5265C75.7844 28.8427 74.9385 29.0008 74.0214 29.0008ZM74.0689 26.5342C74.7488 26.5342 75.3575 26.3603 75.8951 26.0124C76.4327 25.6487 76.8517 25.1586 77.1522 24.5419C77.4684 23.9253 77.6265 23.2216 77.6265 22.4311C77.6265 21.6405 77.4684 20.9447 77.1522 20.3439C76.8517 19.7272 76.4327 19.245 75.8951 18.8971C75.3575 18.5335 74.7488 18.3516 74.0689 18.3516C73.389 18.3516 72.7802 18.5335 72.2426 18.8971C71.705 19.245 71.2781 19.7272 70.9619 20.3439C70.6614 20.9447 70.5112 21.6405 70.5112 22.4311C70.5112 23.2216 70.6614 23.9253 70.9619 24.5419C71.2781 25.1586 71.705 25.6487 72.2426 26.0124C72.7802 26.3603 73.389 26.5342 74.0689 26.5342Z" fill="#1C1C1C"/>
<path d="M81.3268 28.6451V16.2407H83.8172L83.9357 18.2805C84.252 17.5847 84.6868 17.0471 85.2402 16.6677C85.8094 16.2724 86.4735 16.0747 87.2325 16.0747C87.4697 16.0747 87.6989 16.0905 87.9203 16.1222C88.1417 16.1538 88.3393 16.2091 88.5132 16.2882L88.2049 18.9446C88.031 18.8813 87.8491 18.8418 87.6594 18.826C87.4697 18.7943 87.2799 18.7785 87.0902 18.7785C86.1415 18.7785 85.3983 19.0948 84.8607 19.7272C84.3231 20.3597 84.0543 21.2373 84.0543 22.3599V28.6451H81.3268Z" fill="#1C1C1C"/>
<path d="M93.893 29.0008C93.0708 29.0008 92.3039 28.8348 91.5924 28.5028C90.8967 28.1707 90.2879 27.7122 89.7662 27.1271C89.2444 26.5421 88.8333 25.8543 88.5328 25.0637C88.2482 24.2731 88.1059 23.4193 88.1059 22.5022C88.1059 21.5693 88.2561 20.6997 88.5566 19.8933C88.857 19.0869 89.276 18.3832 89.8136 17.7824C90.3512 17.1815 90.9758 16.7151 91.6873 16.3831C92.4146 16.051 93.1973 15.885 94.0353 15.885C94.8575 15.885 95.6086 16.0589 96.2885 16.4068C96.9684 16.7546 97.5297 17.2448 97.9725 17.8773V10.9991H100.7V28.6451H98.2096L98.0911 26.6528C97.6483 27.3801 97.0633 27.9573 96.3359 28.3842C95.6086 28.7953 94.7943 29.0008 93.893 29.0008ZM94.4623 26.5342C95.1422 26.5342 95.7509 26.3603 96.2885 26.0124C96.8261 25.6487 97.2451 25.1586 97.5455 24.5419C97.8618 23.9253 98.0199 23.2295 98.0199 22.4548C98.0199 21.6642 97.8618 20.9606 97.5455 20.3439C97.2451 19.7272 96.8261 19.245 96.2885 18.8971C95.7509 18.5335 95.1422 18.3516 94.4623 18.3516C93.7823 18.3516 93.1736 18.5335 92.636 18.8971C92.0984 19.245 91.6715 19.7272 91.3552 20.3439C91.0548 20.9606 90.9046 21.6642 90.9046 22.4548C90.9046 23.2295 91.0548 23.9253 91.3552 24.5419C91.6715 25.1586 92.0984 25.6487 92.636 26.0124C93.1736 26.3603 93.7823 26.5342 94.4623 26.5342Z" fill="#1C1C1C"/>
<path d="M105.149 12.778C105.149 13.0784 105.07 13.3551 104.912 13.6081C104.77 13.8611 104.572 14.0666 104.319 14.2247C104.066 14.3671 103.789 14.4382 103.489 14.4382C103.189 14.4382 102.912 14.3671 102.659 14.2247C102.406 14.0666 102.2 13.8611 102.042 13.6081C101.9 13.3551 101.829 13.0784 101.829 12.778C101.829 12.4775 101.9 12.2008 102.042 11.9479C102.2 11.6949 102.406 11.4972 102.659 11.3549C102.912 11.1968 103.189 11.1177 103.489 11.1177C103.789 11.1177 104.066 11.1968 104.319 11.3549C104.572 11.4972 104.77 11.6949 104.912 11.9479C105.07 12.2008 105.149 12.4775 105.149 12.778ZM102.137 28.6451V16.2407H104.865V28.6451H102.137Z" fill="#1C1C1C"/>
<path d="M112.075 29.0008C111.158 29.0008 110.312 28.8427 109.537 28.5265C108.778 28.1944 108.114 27.7359 107.545 27.1509C106.976 26.5658 106.533 25.878 106.217 25.0874C105.916 24.281 105.766 23.3956 105.766 22.4311C105.766 21.4982 105.916 20.6364 106.217 19.8458C106.533 19.0552 106.96 18.3674 107.498 17.7824C108.051 17.1815 108.699 16.7151 109.442 16.3831C110.186 16.051 110.992 15.885 111.862 15.885C112.731 15.885 113.522 16.0431 114.233 16.3593C114.961 16.6598 115.585 17.0946 116.107 17.6638C116.645 18.233 117.056 18.9129 117.34 19.7035C117.625 20.4783 117.767 21.34 117.767 22.2887V23.0951H108.589C108.668 23.8225 108.857 24.455 109.158 24.9926C109.474 25.5143 109.877 25.9175 110.367 26.2022C110.858 26.4868 111.427 26.6291 112.075 26.6291C113.372 26.6291 114.384 26.0519 115.111 24.8977L117.506 25.8227C117.222 26.471 116.803 27.0402 116.249 27.5303C115.712 28.0047 115.079 28.3684 114.352 28.6214C113.64 28.8743 112.882 29.0008 112.075 29.0008ZM111.862 18.0907C111.308 18.0907 110.81 18.2172 110.367 18.4702C109.941 18.7232 109.577 19.079 109.276 19.5375C108.976 19.996 108.77 20.5336 108.66 21.1503H114.921C114.826 20.5336 114.645 19.996 114.376 19.5375C114.107 19.079 113.751 18.7232 113.308 18.4702C112.882 18.2172 112.399 18.0907 111.862 18.0907Z" fill="#1C1C1C"/>
<path d="M118.593 28.6451V10.9991H121.321V18.0433C121.763 17.3634 122.34 16.8337 123.052 16.4542C123.763 16.0747 124.546 15.885 125.4 15.885C126.222 15.885 126.981 16.051 127.677 16.3831C128.388 16.7151 129.005 17.1736 129.527 17.7587C130.049 18.3437 130.452 19.0315 130.736 19.8221C131.037 20.6127 131.187 21.4665 131.187 22.3836C131.187 23.3165 131.037 24.1862 130.736 24.9926C130.436 25.799 130.017 26.5026 129.479 27.1034C128.942 27.7043 128.309 28.1707 127.582 28.5028C126.87 28.8348 126.096 29.0008 125.258 29.0008C124.388 29.0008 123.597 28.8111 122.886 28.4316C122.19 28.0521 121.629 27.5145 121.202 26.8188L121.083 28.6451H118.593ZM124.831 26.5342C125.511 26.5342 126.119 26.3603 126.657 26.0124C127.195 25.6487 127.614 25.1586 127.914 24.5419C128.23 23.9253 128.388 23.2216 128.388 22.4311C128.388 21.6405 128.23 20.9447 127.914 20.3439C127.614 19.7272 127.195 19.245 126.657 18.8971C126.119 18.5335 125.511 18.3516 124.831 18.3516C124.151 18.3516 123.542 18.5335 123.004 18.8971C122.467 19.245 122.04 19.7272 121.724 20.3439C121.423 20.9447 121.273 21.6405 121.273 22.4311C121.273 23.2216 121.423 23.9253 121.724 24.5419C122.04 25.1586 122.467 25.6487 123.004 26.0124C123.542 26.3603 124.151 26.5342 124.831 26.5342Z" fill="#1C1C1C"/>
<path d="M137.958 29.0008C137.057 29.0008 136.219 28.8427 135.444 28.5265C134.685 28.1944 134.021 27.7359 133.451 27.1509C132.882 26.55 132.44 25.8543 132.123 25.0637C131.807 24.2573 131.649 23.3798 131.649 22.4311C131.649 21.4982 131.807 20.6364 132.123 19.8458C132.44 19.0394 132.882 18.3437 133.451 17.7587C134.037 17.1578 134.716 16.6993 135.491 16.3831C136.282 16.051 137.136 15.885 138.053 15.885C138.954 15.885 139.784 16.051 140.543 16.3831C141.318 16.6993 141.99 17.1578 142.559 17.7587C143.128 18.3437 143.571 19.0315 143.887 19.8221C144.203 20.6127 144.362 21.4823 144.362 22.4311C144.362 23.3798 144.203 24.2573 143.887 25.0637C143.571 25.8543 143.12 26.55 142.535 27.1509C141.966 27.7359 141.286 28.1944 140.496 28.5265C139.721 28.8427 138.875 29.0008 137.958 29.0008ZM138.005 26.5342C138.685 26.5342 139.294 26.3603 139.832 26.0124C140.369 25.6487 140.788 25.1586 141.089 24.5419C141.405 23.9253 141.563 23.2216 141.563 22.4311C141.563 21.6405 141.405 20.9447 141.089 20.3439C140.788 19.7272 140.369 19.245 139.832 18.8971C139.294 18.5335 138.685 18.3516 138.005 18.3516C137.325 18.3516 136.717 18.5335 136.179 18.8971C135.641 19.245 135.214 19.7272 134.898 20.3439C134.598 20.9447 134.448 21.6405 134.448 22.4311C134.448 23.2216 134.598 23.9253 134.898 24.5419C135.214 25.1586 135.641 25.6487 136.179 26.0124C136.717 26.3603 137.325 26.5342 138.005 26.5342Z" fill="#1C1C1C"/>
<path d="M143.569 28.6451L148.289 22.099L144.091 16.2407H147.174L149.83 20.3913L152.558 16.2407H155.523L151.325 22.099L156.044 28.6451H152.842L149.783 23.9015L146.676 28.6451H143.569Z" fill="#1C1C1C"/>
<defs>
<clipPath id="clip0_751_13905">
<rect width="40" height="40" fill="white"/>
</clipPath>
</defs>
</svg>
